<?xml version="1.0" encoding="utf-8"?>
<!-- Generator: Adobe Illustrator 19.0.0, SVG Export Plug-In . SVG Version: 6.00 Build 0)  -->
<svg version="1.1" id="Layer_1" xmlns="http://www.w3.org/2000/svg" xmlns:xlink="http://www.w3.org/1999/xlink" x="0px" y="0px"
	 width="498px" height="498px" viewBox="0 0 498 498" enable-background="new 0 0 498 498" xml:space="preserve">
<g id="XMLID_1_">
	<path id="XMLID_20_" fill="#FACB7E" d="M247.5,0C142,0.6,45.9,70.3,12.6,170.5c78.3,25.4,156.6,50.9,234.9,76.3
		C247.5,164.6,247.5,82.3,247.5,0z"/>
	<path id="XMLID_21_" fill="#FACB7E" d="M486.3,173.5c-78.3,25.4-156.6,50.9-234.9,76.3c48.4,66.6,96.8,133.2,145.1,199.8
		C481.5,387,518.3,274.1,486.3,173.5z"/>
	<path id="XMLID_22_" fill="#FACB7E" d="M396.7,48.5C354.5,17.4,302.9,0.3,250.5,0c0,82.3,0,164.5,0,246.8
		c78.3-25.4,156.6-50.9,234.9-76.3C469.2,121.8,437.9,79,396.7,48.5C354.1,17.1,438.5,79.3,396.7,48.5z"/>
	<path id="XMLID_23_" fill="#FACB7E" d="M103.9,451.3c85.7,61.6,204.6,61.6,290.3,0c-48.4-66.6-96.8-133.2-145.1-199.8
		C200.6,318.1,152.2,384.7,103.9,451.3z"/>
	<path id="XMLID_24_" fill="#FACB7E" d="M11.7,173.5c-32,100.6,4.9,213.5,89.8,276.1c48.4-66.6,96.8-133.2,145.1-199.8
		C168.3,224.3,90,198.9,11.7,173.5z"/>
</g>
</svg>
