<?xml version="1.0" encoding="utf-8"?>
<!-- Generator: Adobe Illustrator 19.0.0, SVG Export Plug-In . SVG Version: 6.00 Build 0)  -->
<svg version="1.1" xmlns="http://www.w3.org/2000/svg" xmlns:xlink="http://www.w3.org/1999/xlink" x="0px" y="0px" width="498px"
	 height="498px" viewBox="0 2 498 498" enable-background="new 0 2 498 498" xml:space="preserve">
<g id="Layer_1">
	<path  fill="#0000FF" texture="" d="M247,181.9c0-59.9,0-119.9,0-179.9C141.5,2.6,45.5,72.3,12.1,172.5c57.6,18.7,115.1,37.4,172.7,56.1
		C194,202.5,218.2,183.5,247,181.9z"/>
</g>
<g id="Layer_2">
	<path  fill="#FACB7E" d="M181,251.8c0-7,1.1-13.8,3-20.2c-57.6-18.7-115.1-37.4-172.7-56.1c-32,100.6,4.9,213.5,89.8,276.1
		c35.2-48.5,70.5-97,105.7-145.5C191.1,293.3,181,273.7,181,251.8z"/>
</g>
<g id="Layer_3">
	<path fill="#FACB7E" d="M209,308.4c-35.2,48.5-70.5,96.9-105.6,145.4c85.7,61.6,204.6,61.6,290.3,0c-34.7-47.7-69.4-95.5-104-143.2
		c-11.1,7.4-24.4,11.7-38.8,11.7C235.1,322.3,220.6,317.2,209,308.4z"/>
</g>
<g id="Layer_4">
	<path fill="#FACB7E" d="M485.4,175.5c-56.1,18.2-112.2,36.4-168.3,54.7c2.2,6.8,3.4,14.1,3.4,21.6c0,23.3-11.4,43.9-28.9,56.6
		c34.7,47.7,69.3,95.4,103.9,143.2C480.6,389,517.4,276.1,485.4,175.5z"/>
</g>
<g id="Layer_5">
	<path fill="#FACB7E" d="M317,227.2c56.1-18.2,112.3-36.5,168.4-54.7c-16.2-48.7-47.5-91.5-88.7-122C354.5,19.4,302.9,2.3,250.5,2
		c0,60,0,119.9,0,179.8c0.3,0,0.6,0,0.9,0C281.4,181.8,307,200.7,317,227.2z"/>
	<path fill="#FACB7E" d="M396.7,50.5C438.5,81.3,354.1,19.1,396.7,50.5L396.7,50.5z"/>
</g>
</svg>
